<?xml version="1.0" standalone="no"?><!DOCTYPE svg PUBLIC "-//W3C//DTD SVG 1.1//EN" "http://www.w3.org/Graphics/SVG/1.1/DTD/svg11.dtd"><svg t="1508206991787" class="icon" style="" viewBox="0 0 1024 1024" version="1.1" xmlns="http://www.w3.org/2000/svg" p-id="4049" xmlns:xlink="http://www.w3.org/1999/xlink" width="60" height="60"><defs><style type="text/css"></style></defs><path d="M560.913 341.333l-270.78 239.463h122.42L309.47 750.933l270.797-239.462h-122.42l103.066-170.138z m394.82 51.2h-51.2v-102.4c0-28.28-22.92-51.2-51.2-51.2H51.2c-28.28 0-51.2 22.92-51.2 51.2v512c0 28.28 22.92 51.2 51.2 51.2h802.133c28.28 0 51.2-22.92 51.2-51.2v-102.4h51.2c28.28 0 51.2-22.92 51.2-51.2v-204.8c0-28.28-22.92-51.2-51.2-51.2zM836.267 759.467c0 14.13-11.47 25.6-25.6 25.6h-716.8c-14.149 0-25.6-11.47-25.6-25.6V332.8c0-14.131 11.451-25.6 25.6-25.6h716.8c14.13 0 25.6 11.469 25.6 25.6v426.667z" p-id="4050" fill="#e6e6e6"></path></svg>