<?xml version="1.0" standalone="no"?><!DOCTYPE svg PUBLIC "-//W3C//DTD SVG 1.1//EN" "http://www.w3.org/Graphics/SVG/1.1/DTD/svg11.dtd"><svg t="1508932092239" class="icon" style="" viewBox="0 0 2048 1024" version="1.1" xmlns="http://www.w3.org/2000/svg" p-id="1015" xmlns:xlink="http://www.w3.org/1999/xlink" width="400" height="200"><defs><style type="text/css"></style></defs><path d="M832 563.2h160v284.8c6.4 0 9.6-3.2 12.8-12.8l163.2-345.6c6.4-16 0-28.8-19.2-28.8h-160V176c-6.4 0-9.6 3.2-12.8 12.8l-163.2 345.6c-6.4 16 0 28.8 19.2 28.8zM2016 320h-64V96c0-54.4-41.6-96-96-96H96C41.6 0 0 41.6 0 96v832c0 54.4 41.6 96 96 96h1760c54.4 0 96-41.6 96-96v-224h64c19.2 0 32-12.8 32-32V352c0-16-16-32-32-32z m-192 576H128V128h1696v768z" fill="#1afa29" p-id="1016"></path></svg>