<?xml version="1.0" standalone="no"?><!DOCTYPE svg PUBLIC "-//W3C//DTD SVG 1.1//EN" "http://www.w3.org/Graphics/SVG/1.1/DTD/svg11.dtd"><svg t="1513590038002" class="icon" style="" viewBox="0 0 1024 1024" version="1.1" xmlns="http://www.w3.org/2000/svg" p-id="1896" xmlns:xlink="http://www.w3.org/1999/xlink" width="200" height="200"><defs><style type="text/css"></style></defs><path d="M516.083446 409.454178c-4.112529 0-8.225059-0.944286-12.003289-2.722149L135.083489 229.790155c-9.670793-4.612893-15.784775-14.390054-15.784775-25.061574s6.113982-20.454108 15.784775-25.062659l368.997754-176.942959c7.666085-3.612166 16.560827-3.667521 24.171557 0.055355l364.164528 176.944045c9.556828 4.612893 15.615455 14.334699 15.615455 25.006219s-6.058627 20.336886-15.615455 25.005134L528.196359 406.618063C524.419215 408.509892 520.25133 409.454178 516.083446 409.454178L516.083446 409.454178zM211.382902 204.728582l304.646276 146.043092L816.672547 204.728582 516.028092 58.683319 211.382902 204.728582 211.382902 204.728582zM211.382902 204.728582M516.083446 830.075084c-4.167884 0-8.280413-0.945372-12.117255-2.777504l-364.160187-176.939703c-13.838678-6.723969-19.56192-23.340151-12.837951-37.178828 6.723969-13.783323 23.284796-19.56192 37.123474-12.837951l351.991919 171.050396 351.991919-171.050396c13.838678-6.614345 30.454859-0.890017 37.178828 12.837951 6.665358 13.838678 0.94103 30.454859-12.837951 37.178828l-364.164528 176.939703C524.419215 829.189409 520.25133 830.075084 516.083446 830.075084L516.083446 830.075084zM516.083446 830.075084M880.078654 645.021032c-15.339767 0-27.788065-12.448297-27.788065-27.783723l0-407.676587c0-15.335425 12.448297-27.783723 27.788065-27.783723s27.788065 12.448297 27.788065 27.783723l0 407.676587C907.865634 632.628089 895.417336 645.021032 880.078654 645.021032L880.078654 645.021032zM880.078654 645.021032M143.753556 648.243544c-15.339767 0-27.788065-12.448297-27.788065-27.783723l0-410.899099c0-15.335425 12.448297-27.783723 27.788065-27.783723 15.335425 0 27.783723 12.448297 27.783723 27.783723l0 410.899099C171.537279 635.795247 159.088981 648.243544 143.753556 648.243544L143.753556 648.243544zM143.753556 648.243544M539.75464 383.77502l4.192848 411.021748-55.566361 0.567657-4.192848-411.022833L539.75464 383.77502 539.75464 383.77502zM539.75464 383.77502" p-id="1897"></path></svg>