<?xml version="1.0" standalone="no"?><!DOCTYPE svg PUBLIC "-//W3C//DTD SVG 1.1//EN" "http://www.w3.org/Graphics/SVG/1.1/DTD/svg11.dtd"><svg t="1507872156029" class="icon" style="" viewBox="0 0 1024 1024" version="1.1" xmlns="http://www.w3.org/2000/svg" p-id="21391" xmlns:xlink="http://www.w3.org/1999/xlink" width="200" height="200"><defs><style type="text/css"></style></defs><path d="M1001.44 646.4c1.408 8.4 1.056 18.56-1.056 30.464-2.096 11.904-5.6 23.984-10.496 36.24a156.448 156.448 0 0 1-17.856 33.088c-7.008 9.808-14.704 16.816-23.12 21.008-8.4 4.208-15.76 6.304-22.064 6.304s-13.312-1.408-21.008-4.208a218.32 218.32 0 0 0-26.272-5.776 122.464 122.464 0 0 0-32.048-1.056 154.416 154.416 0 0 0-32.56 6.832 63.712 63.712 0 0 0-27.84 17.856c-16.8 17.504-26.608 37.472-29.408 59.888a118 118 0 0 0 9.456 64.08c7.008 14 5.952 28.016-3.152 42.016-4.208 5.6-10.864 11.376-19.968 17.344-9.104 5.952-19.088 11.376-29.936 16.288-10.848 4.896-22.24 8.752-34.144 11.552-11.904 2.8-22.416 4.208-31.52 4.208-6.304 0-12.256-2.448-17.856-7.36-5.6-4.896-9.456-10.16-11.552-15.76h-1.056c-7.712-21.712-20.832-40.448-39.392-56.208-18.56-15.76-40.096-23.632-64.608-23.632-23.808 0-45.344 7.888-64.608 23.632-19.264 15.76-32.736 34.144-40.448 55.152-3.504 8.4-8.752 14.528-15.76 18.384a47.12 47.12 0 0 1-23.12 5.776c-9.808 0-20.832-1.76-33.088-5.248a309.68 309.68 0 0 1-36.768-13.136 175.52 175.52 0 0 1-33.088-18.384c-9.808-7.008-17.152-14-22.064-21.008a32.048 32.048 0 0 1-5.776-17.344c-0.352-6.656 2.272-15.936 7.888-27.84 7.712-16.112 10.688-34.496 8.928-55.152-1.744-20.672-10.688-39.744-26.784-57.264a68.384 68.384 0 0 0-35.712-20.48 144.864 144.864 0 0 0-39.92-3.68c-14.704 0.704-29.76 3.504-45.168 8.4a42.752 42.752 0 0 1-29.408-2.112c-7.712-2.8-14.88-9.28-21.536-19.44a217.184 217.184 0 0 1-17.856-33.616 202.928 202.928 0 0 1-12.112-37.776c-2.8-12.96-3.504-23.648-2.096-32.048 2.096-15.408 9.104-25.216 21.008-29.408 21.008-8.4 39.92-22.24 56.736-41.488 16.8-19.264 25.216-40.8 25.216-64.608 0-24.512-8.4-45.872-25.216-64.08-16.816-18.208-35.728-31.52-56.736-39.92-6.304-2.096-11.552-7.184-15.76-15.232a52.736 52.736 0 0 1-6.304-24.688c0-9.104 1.408-19.264 4.208-30.464 2.8-11.2 6.48-22.064 11.024-32.56s9.808-20.128 15.76-28.896c5.952-8.752 12.432-15.232 19.424-19.44 5.6-3.504 11.024-4.896 16.288-4.208 5.248 0.704 11.024 2.112 17.328 4.208a127.2 127.2 0 0 0 65.664 7.888c22.768-3.152 42.896-13.136 60.416-29.936 8.4-8.4 14.528-18.736 18.384-30.992s6.304-24.336 7.36-36.24c1.056-11.904 1.056-22.768 0-32.576s-1.92-16.8-2.624-21.008a112.4 112.4 0 0 1-3.68-14.704c-1.056-5.6-0.528-10.512 1.568-14.704 4.208-9.808 11.728-18.384 22.592-25.744a175.84 175.84 0 0 1 35.2-18.384 227.84 227.84 0 0 1 36.768-11.024c11.904-2.448 21.36-3.68 28.368-3.68 9.104 0 16.288 2.976 21.536 8.928 5.248 5.952 8.928 12.08 11.024 18.384 7.712 18.912 20.32 35.536 37.824 49.904 17.504 14.352 38.176 21.536 61.984 21.536 24.512 0 46.224-6.832 65.136-20.48 18.912-13.664 32.224-30.992 39.92-52 2.8-5.6 7.184-11.376 13.136-17.328 5.952-5.952 12.08-8.928 18.384-8.928 9.808 0 20.496 1.408 32.048 4.208 11.552 2.8 22.944 6.656 34.144 11.552s21.536 11.2 30.992 18.912a101.44 101.44 0 0 1 22.592 25.216c3.504 5.6 4.544 11.728 3.152 18.384-1.408 6.656-2.8 11.376-4.208 14.176a111.392 111.392 0 0 0-8.4 64.08c3.504 22.4 13.664 42.016 30.464 58.832 16.8 16.8 37.472 26.096 61.984 27.84 24.512 1.76 47.28-2.272 68.288-12.08 5.6-3.504 12.432-4.896 20.48-4.208 8.048 0.704 14.88 3.856 20.496 9.456 10.496 9.808 19.776 24.688 27.84 44.656a253.808 253.808 0 0 1 16.288 60.4c1.392 11.904-0.528 21.184-5.776 27.84-5.248 6.656-10.672 11.024-16.288 13.136-21.712 7.712-40.272 21.184-55.68 40.448-15.408 19.264-23.12 41.152-23.12 65.664 0 23.808 6.48 44.64 19.44 62.512a107.008 107.008 0 0 0 50.944 38.336c4.896 2.8 9.104 5.6 12.608 8.4 7.68 6.272 12.928 14.32 15.728 24.128z m-488.496 94.544c31.52 0 61.28-5.952 89.296-17.856a224.16 224.16 0 0 0 73.008-49.376 236.4 236.4 0 0 0 48.848-73.008c11.904-27.664 17.856-57.264 17.856-88.768 0-31.52-5.952-61.104-17.856-88.768a229.968 229.968 0 0 0-48.848-72.48c-20.656-20.656-44.992-36.944-73.008-48.848-28.016-11.904-57.776-17.856-89.296-17.856-31.52 0-61.104 5.952-88.768 17.856a230.224 230.224 0 0 0-72.496 48.848 229.968 229.968 0 0 0-48.848 72.48c-11.904 27.664-17.872 57.248-17.872 88.768 0 31.52 5.952 61.104 17.872 88.768a236.4 236.4 0 0 0 48.848 73.008 225.744 225.744 0 0 0 72.496 49.376c27.664 11.904 57.248 17.856 88.768 17.856z" p-id="21392"></path></svg>