<?xml version="1.0" standalone="no"?><!DOCTYPE svg PUBLIC "-//W3C//DTD SVG 1.1//EN" "http://www.w3.org/Graphics/SVG/1.1/DTD/svg11.dtd"><svg t="1508328276456" class="icon" style="" viewBox="0 0 1024 1024" version="1.1" xmlns="http://www.w3.org/2000/svg" p-id="3288" xmlns:xlink="http://www.w3.org/1999/xlink" width="200" height="200"><defs><style type="text/css"></style></defs><path d="M667.616 565.792c25.824 0 46.688-20.672 46.688-46.08 0-25.472-20.864-46.112-46.688-46.112s-46.688 20.64-46.688 46.112C620.928 545.12 641.824 565.792 667.616 565.792zM667.616 504.32c8.64 0 15.552 6.88 15.552 15.36s-6.944 15.36-15.552 15.36c-8.576 0-15.552-6.88-15.552-15.36S659.072 504.32 667.616 504.32zM356.352 565.792c25.792 0 46.72-20.672 46.72-46.08 0-25.472-20.928-46.112-46.72-46.112s-46.688 20.64-46.688 46.112C309.664 545.12 330.592 565.792 356.352 565.792zM356.352 504.32c8.64 0 15.584 6.88 15.584 15.36s-6.976 15.36-15.584 15.36c-8.576 0-15.52-6.88-15.52-15.36S347.776 504.32 356.352 504.32zM792.128 196.832l-77.824 0c0-25.44-20.864-46.112-46.688-46.112s-46.688 20.672-46.688 46.112l-62.24 0c0-25.44-20.928-46.112-46.688-46.112-25.792 0-46.656 20.672-46.656 46.112l-62.24 0c0-25.44-20.928-46.112-46.72-46.112S309.664 171.36 309.664 196.832L231.872 196.832C197.472 196.832 169.6 224.384 169.6 258.304l0 553.472c0 33.984 27.872 61.504 62.24 61.504l560.256 0c34.368 0 62.24-27.52 62.24-61.504L854.336 258.304C854.368 224.384 826.496 196.832 792.128 196.832zM652.064 196.832c0-8.48 7.008-15.36 15.552-15.36 8.64 0 15.552 6.88 15.552 15.36l0 30.72c0 8.512-6.944 15.36-15.552 15.36-8.576 0-15.552-6.848-15.552-15.36L652.064 196.832zM496.448 196.832c0-8.48 6.944-15.36 15.52-15.36 8.64 0 15.584 6.88 15.584 15.36l0 30.72c0 8.512-6.976 15.36-15.584 15.36-8.576 0-15.52-6.848-15.52-15.36L496.448 196.832zM340.832 196.832c0-8.48 6.944-15.36 15.52-15.36 8.64 0 15.584 6.88 15.584 15.36l0 30.72c0 8.512-6.976 15.36-15.584 15.36-8.576 0-15.52-6.848-15.52-15.36L340.832 196.832zM823.264 811.776c0 16.96-13.888 30.752-31.136 30.752L231.872 842.528c-17.152 0-31.136-13.792-31.136-30.752L200.736 365.952l622.528 0L823.264 811.776zM823.264 335.2 200.736 335.2 200.736 258.304c0-16.96 13.984-30.752 31.136-30.752l77.824 0c0 25.472 20.896 46.144 46.688 46.144s46.72-20.672 46.72-46.144l62.24 0c0 25.472 20.864 46.144 46.656 46.144 25.76 0 46.688-20.672 46.688-46.144l62.24 0c0 25.472 20.864 46.144 46.688 46.144s46.688-20.672 46.688-46.144l77.824 0c17.248 0 31.136 13.792 31.136 30.752L823.264 335.2zM512 565.792c25.76 0 46.688-20.672 46.688-46.08 0-25.472-20.928-46.112-46.688-46.112-25.792 0-46.656 20.64-46.656 46.112C465.344 545.12 486.208 565.792 512 565.792zM512 504.32c8.64 0 15.584 6.88 15.584 15.36s-6.976 15.36-15.584 15.36c-8.576 0-15.52-6.88-15.52-15.36S503.392 504.32 512 504.32zM512 734.944c25.76 0 46.688-20.672 46.688-46.144 0-25.472-20.928-46.112-46.688-46.112-25.792 0-46.656 20.672-46.656 46.112C465.344 714.272 486.208 734.944 512 734.944zM512 673.408c8.64 0 15.584 6.88 15.584 15.36 0 8.48-6.976 15.392-15.584 15.392-8.576 0-15.52-6.944-15.52-15.392C496.448 680.288 503.392 673.408 512 673.408zM667.616 734.944c25.824 0 46.688-20.672 46.688-46.144 0-25.472-20.864-46.112-46.688-46.112s-46.688 20.672-46.688 46.112C620.928 714.272 641.824 734.944 667.616 734.944zM667.616 673.408c8.64 0 15.552 6.88 15.552 15.36 0 8.48-6.944 15.392-15.552 15.392-8.576 0-15.552-6.944-15.552-15.392C652.064 680.288 659.072 673.408 667.616 673.408zM356.352 734.944c25.792 0 46.72-20.672 46.72-46.144 0-25.472-20.928-46.112-46.72-46.112s-46.688 20.672-46.688 46.112C309.664 714.272 330.592 734.944 356.352 734.944zM356.352 673.408c8.64 0 15.584 6.88 15.584 15.36 0 8.48-6.976 15.392-15.584 15.392-8.576 0-15.52-6.944-15.52-15.392C340.832 680.288 347.776 673.408 356.352 673.408z" p-id="3289"></path></svg>