<?xml version="1.0" standalone="no"?><!DOCTYPE svg PUBLIC "-//W3C//DTD SVG 1.1//EN" "http://www.w3.org/Graphics/SVG/1.1/DTD/svg11.dtd"><svg t="1513589388334" class="icon" style="" viewBox="0 0 1024 1024" version="1.1" xmlns="http://www.w3.org/2000/svg" p-id="4117" xmlns:xlink="http://www.w3.org/1999/xlink" width="32" height="32"><defs><style type="text/css"></style></defs><path d="M404.64597 322.108139c-20.911262 0-37.920658 17.010419-37.920658 37.920658l0 299.960723c0 20.912285 17.010419 37.922704 37.920658 37.922704 20.912285 0 37.922704-17.010419 37.922704-37.922704L442.568674 360.02982C442.567651 339.123674 425.558256 322.108139 404.64597 322.108139L404.64597 322.108139zM404.64597 322.108139" p-id="4118" fill="#d81e06"></path><path d="M923.278018 336.039429c-22.514783-53.224202-54.742788-101.024881-95.789647-142.071739-41.047882-41.041742-88.842421-73.269747-142.067646-95.78453-55.110155-23.313985-113.645316-35.130102-173.972287-35.130102s-118.861108 11.81714-173.968194 35.130102c-53.224202 22.514783-101.023858 54.742788-142.070716 95.78453-41.047882 41.046858-73.27077 88.847537-95.789647 142.071739-23.308869 55.106062-35.132148 113.641223-35.132148 173.972287 0 60.32697 11.818163 118.861108 35.132148 173.972287 22.508643 53.224202 54.736649 101.023858 95.78453 142.0656 41.046858 41.047882 88.841398 73.275887 142.0656 95.789647 55.111179 23.308869 113.645316 35.127032 173.972287 35.127032 60.332087 0 118.867248-11.818163 173.977403-35.127032 53.224202-22.51376 101.023858-54.740742 142.067646-95.789647 41.046858-41.046858 73.274864-88.841398 95.78453-142.0656 23.308869-55.111179 35.130102-113.645316 35.130102-173.972287C958.404026 449.680653 946.586886 391.145491 923.278018 336.039429L923.278018 336.039429zM661.2093 864.526939c-47.427172 20.059871-97.81784 30.235628-149.764955 30.235628-51.941999 0-102.328573-10.17678-149.755746-30.235628-45.814442-19.374256-86.960561-47.119157-122.299417-82.459037-35.334763-35.338856-63.079664-76.484975-82.459037-122.299417-20.059871-47.427172-30.231535-97.813746-30.231535-149.755746 0-51.947116 10.171664-102.33062 30.231535-149.755746 19.379373-45.814442 47.119157-86.964654 82.459037-122.305557 35.338856-35.33374 76.490092-63.078641 122.299417-82.458013 47.427172-20.059871 97.813746-30.232558 149.755746-30.232558 51.947116 0 102.33369 10.172687 149.760862 30.232558 45.814442 19.379373 86.960561 47.124274 122.30044 82.458013 35.338856 35.33988 63.078641 76.491115 82.458013 122.305557 20.059871 47.425126 30.232558 97.80863 30.232558 149.755746 0 51.941999-10.172687 102.328573-30.232558 149.755746-19.374256 45.819558-47.114041 86.960561-82.452897 122.299417C748.169861 817.407782 707.023742 845.151659 661.2093 864.526939L661.2093 864.526939zM661.2093 864.526939" p-id="4119" fill="#d81e06"></path><path d="M618.262162 322.108139c-20.912285 0-37.926798 17.010419-37.926798 37.920658l0 299.960723c0 20.912285 17.015535 37.922704 37.926798 37.922704 20.906146 0 37.920658-17.010419 37.920658-37.922704L656.18282 360.02982C656.18282 339.123674 639.168308 322.108139 618.262162 322.108139L618.262162 322.108139zM618.262162 322.108139" p-id="4120" fill="#d81e06"></path></svg>